#tb 0: 1/25
#media_type 0: video
#codec_id 0: rawvideo
#dimensions 0: 1920x1080
#sar 0: 0/1
0,          0,          0,        1,  3110400, 0x6fe6508f
0,          1,          1,        1,  3110400, 0xa56a3403
0,          2,          2,        1,  3110400, 0x45db0973
0,          3,          3,        1,  3110400, 0xb341a760
0,          4,          4,        1,  3110400, 0x849c086c
